<svg width="28" height="27" viewBox="0 0 28 27" fill="none" xmlns="http://www.w3.org/2000/svg">
<path d="M3.3837 11.916C3.0717 11.916 2.7717 11.8 2.4837 11.568C2.1957 11.344 1.9477 10.972 1.7397 10.452C1.6677 10.268 1.6157 10.076 1.5837 9.876C1.5517 9.676 1.5357 9.476 1.5357 9.276C1.5357 8.948 1.5717 8.62 1.6437 8.292C1.7157 7.964 1.8077 7.656 1.9197 7.368C2.0077 7.16 2.1317 6.928 2.2917 6.672C2.4517 6.408 2.6037 6.192 2.7477 6.024C2.7957 5.976 2.8557 5.924 2.9277 5.868C2.9997 5.804 3.0477 5.772 3.0717 5.772C3.0797 5.772 3.0837 5.776 3.0837 5.784C3.0837 5.808 3.0157 5.904 2.8797 6.072C2.5517 6.472 2.3077 6.928 2.1477 7.44C1.9957 7.944 1.9197 8.444 1.9197 8.94C1.9197 9.236 1.9437 9.52 1.9917 9.792C2.0477 10.064 2.1197 10.316 2.2077 10.548C2.3757 10.972 2.5557 11.276 2.7477 11.46C2.9477 11.644 3.1557 11.736 3.3717 11.736C3.6437 11.736 3.9197 11.62 4.1997 11.388C4.4797 11.156 4.7517 10.848 5.0157 10.464C5.2877 10.08 5.5397 9.664 5.7717 9.216C6.0037 8.768 6.2037 8.324 6.3717 7.884C6.5477 7.436 6.6757 7.036 6.7557 6.684L6.9357 5.94C6.8957 5.932 6.8757 5.916 6.8757 5.892C6.8757 5.852 6.9077 5.812 6.9717 5.772C7.0677 5.34 7.1397 4.916 7.1877 4.5C7.2437 4.084 7.2717 3.7 7.2717 3.348C7.2717 2.964 7.2357 2.628 7.1637 2.34C7.0997 2.044 6.9917 1.82 6.8397 1.668C6.7757 1.604 6.7037 1.572 6.6237 1.572C6.5677 1.572 6.5077 1.588 6.4437 1.62C6.3877 1.652 6.3317 1.692 6.2757 1.74C6.2197 1.796 6.2117 1.784 6.2517 1.704C6.2997 1.616 6.3757 1.52 6.4797 1.416C6.5917 1.312 6.7117 1.26 6.8397 1.26C6.9117 1.26 6.9837 1.284 7.0557 1.332C7.3117 1.508 7.4917 1.776 7.5957 2.136C7.7077 2.496 7.7637 2.912 7.7637 3.384C7.7637 3.696 7.7437 4.024 7.7037 4.368C7.6637 4.712 7.6077 5.064 7.5357 5.424C7.5517 5.44 7.5637 5.46 7.5717 5.484C7.5877 5.508 7.6037 5.532 7.6197 5.556C8.5877 5.244 9.3637 4.912 9.9477 4.56C10.5397 4.208 10.9677 3.852 11.2317 3.492C11.5037 3.132 11.6397 2.788 11.6397 2.46C11.6397 2.116 11.5117 1.808 11.2557 1.536C10.9997 1.264 10.6477 1.048 10.1997 0.887999C9.7517 0.727999 9.2357 0.648 8.6517 0.648C8.1077 0.648 7.5437 0.724 6.9597 0.875999C6.4317 1.02 5.9277 1.232 5.4477 1.512C4.9757 1.784 4.5517 2.088 4.1757 2.424C3.8077 2.76 3.5077 3.092 3.2757 3.42C3.0517 3.748 2.9237 4.036 2.8917 4.284C2.8757 4.46 2.8437 4.588 2.7957 4.668C2.7557 4.748 2.7157 4.788 2.6757 4.788C2.5557 4.788 2.4957 4.644 2.4957 4.356C2.4957 4.316 2.4957 4.276 2.4957 4.236C2.5037 4.196 2.5117 4.156 2.5197 4.116C2.5677 3.756 2.7277 3.396 2.9997 3.036C3.2797 2.676 3.6317 2.34 4.0557 2.028C4.4877 1.708 4.9597 1.424 5.4717 1.176C5.9837 0.928 6.4957 0.736 7.0077 0.599999C7.3357 0.512 7.6557 0.448 7.9677 0.408C8.2877 0.368 8.5957 0.348 8.8917 0.348C9.5397 0.348 10.1117 0.436 10.6077 0.611999C11.1037 0.787999 11.4917 1.028 11.7717 1.332C12.0517 1.628 12.1917 1.968 12.1917 2.352C12.1917 2.672 12.0717 3.012 11.8317 3.372C11.5917 3.732 11.2077 4.092 10.6797 4.452C10.1517 4.812 9.4557 5.16 8.5917 5.496C8.4157 5.56 8.2557 5.616 8.1117 5.664C7.9757 5.712 7.8517 5.756 7.7397 5.796C7.8997 6.084 8.1077 6.42 8.3637 6.804C8.6197 7.188 8.8917 7.576 9.1797 7.968C9.4757 8.36 9.7677 8.716 10.0557 9.036C10.3437 9.356 10.6037 9.6 10.8357 9.768C10.9797 9.872 11.1477 9.976 11.3397 10.08C11.5397 10.192 11.7317 10.248 11.9157 10.248C12.0997 10.248 12.2397 10.196 12.3357 10.092C12.4317 9.996 12.4997 9.872 12.5397 9.72C12.5797 9.568 12.5997 9.416 12.5997 9.264C12.5997 8.744 12.4477 8.264 12.1437 7.824C12.1197 7.784 12.1077 7.76 12.1077 7.752C12.1077 7.728 12.1197 7.716 12.1437 7.716C12.1917 7.716 12.2397 7.748 12.2877 7.812C12.4477 8.004 12.5757 8.228 12.6717 8.484C12.7677 8.74 12.8157 8.996 12.8157 9.252C12.8157 9.644 12.6997 9.972 12.4677 10.236C12.2437 10.508 11.9357 10.644 11.5437 10.644C11.1357 10.644 10.7557 10.532 10.4037 10.308C10.0597 10.084 9.7397 9.788 9.4437 9.42C9.1477 9.052 8.8797 8.656 8.6397 8.232C8.3997 7.8 8.1877 7.376 8.0037 6.96C7.8197 6.544 7.6597 6.176 7.5237 5.856L7.4397 5.88C7.3117 6.432 7.1637 6.968 6.9957 7.488C6.8357 8.008 6.6677 8.48 6.4917 8.904C6.2757 9.432 5.9957 9.924 5.6517 10.38C5.3157 10.844 4.9477 11.216 4.5477 11.496C4.1557 11.776 3.7677 11.916 3.3837 11.916ZM13.8155 9.156C13.5275 9.156 13.2755 8.988 13.0595 8.652C12.8515 8.308 12.7475 7.768 12.7475 7.032C12.7475 6.552 12.8075 6.168 12.9275 5.88C13.0475 5.584 13.1955 5.368 13.3715 5.232C13.5475 5.096 13.7155 5.028 13.8755 5.028C14.0355 5.028 14.1715 5.084 14.2835 5.196C14.3955 5.3 14.4515 5.452 14.4515 5.652C14.4515 5.844 14.3955 6.048 14.2835 6.264C14.1715 6.472 14.0355 6.664 13.8755 6.84C13.7235 7.008 13.5715 7.12 13.4195 7.176C13.3875 7.192 13.3475 7.2 13.2995 7.2C13.2675 7.2 13.2515 7.188 13.2515 7.164C13.2515 7.1 13.3155 7.028 13.4435 6.948C13.6035 6.836 13.7555 6.668 13.8995 6.444C14.0435 6.212 14.1155 6.008 14.1155 5.832C14.1155 5.728 14.0915 5.648 14.0435 5.592C13.9955 5.528 13.9395 5.496 13.8755 5.496C13.7555 5.496 13.6235 5.592 13.4795 5.784C13.3435 5.968 13.2435 6.288 13.1795 6.744C13.1635 6.872 13.1475 6.996 13.1315 7.116C13.1235 7.228 13.1195 7.34 13.1195 7.452C13.1195 7.9 13.1875 8.252 13.3235 8.508C13.4595 8.756 13.6395 8.88 13.8635 8.88C14.0555 8.88 14.2715 8.768 14.5115 8.544C14.7515 8.312 14.9875 7.952 15.2195 7.464C15.2755 7.336 15.3395 7.272 15.4115 7.272C15.4595 7.272 15.4835 7.304 15.4835 7.368C15.4835 7.424 15.4675 7.484 15.4355 7.548C15.2275 8.06 14.9755 8.456 14.6795 8.736C14.3835 9.016 14.0955 9.156 13.8155 9.156ZM18.9905 9.912C18.8545 9.912 18.7385 9.856 18.6425 9.744C18.5545 9.64 18.4865 9.54 18.4385 9.444C18.2865 9.164 18.1745 8.836 18.1025 8.46C18.0305 8.076 17.9945 7.664 17.9945 7.224C17.9945 6.648 18.0505 6.048 18.1625 5.424C18.2745 4.8 18.4345 4.2 18.6425 3.624C18.8505 3.04 19.0985 2.528 19.3865 2.088C19.6745 1.64 19.9905 1.308 20.3345 1.092C20.6385 0.892 20.9265 0.792 21.1985 0.792C21.3825 0.792 21.5305 0.848 21.6425 0.96C21.7545 1.064 21.8105 1.232 21.8105 1.464C21.8105 1.76 21.6905 2.16 21.4505 2.664C21.2105 3.168 20.8065 3.78 20.2385 4.5C20.0865 4.692 19.9225 4.88 19.7465 5.064C19.5785 5.248 19.4025 5.444 19.2185 5.652C19.1545 5.716 19.1065 5.748 19.0745 5.748C19.0585 5.748 19.0505 5.74 19.0505 5.724C19.0505 5.668 19.0985 5.588 19.1945 5.484C19.5545 5.1 19.8505 4.74 20.0825 4.404C20.3225 4.06 20.5225 3.708 20.6825 3.348C20.8505 2.98 21.0065 2.572 21.1505 2.124C21.2385 1.836 21.2825 1.608 21.2825 1.44C21.2825 1.16 21.1865 1.02 20.9945 1.02C20.8505 1.02 20.6505 1.124 20.3945 1.332C20.0345 1.636 19.7345 2.016 19.4945 2.472C19.2625 2.928 19.0745 3.416 18.9305 3.936C18.7945 4.456 18.6905 4.968 18.6185 5.472C18.5465 5.976 18.4945 6.428 18.4625 6.828C18.4385 7.02 18.4265 7.308 18.4265 7.692C18.4265 7.924 18.4345 8.168 18.4505 8.424C18.4745 8.68 18.5105 8.912 18.5585 9.12C18.6065 9.336 18.6745 9.504 18.7625 9.624C18.7785 9.656 18.8025 9.688 18.8345 9.72C18.8745 9.76 18.9145 9.788 18.9545 9.804C19.0185 9.828 19.0505 9.852 19.0505 9.876C19.0505 9.9 19.0305 9.912 18.9905 9.912ZM13.0145 12.348C12.8545 12.348 12.7265 12.316 12.6305 12.252C12.5585 12.204 12.4985 12.136 12.4505 12.048C12.4345 12 12.4265 11.96 12.4265 11.928C12.4265 11.864 12.4465 11.804 12.4865 11.748C12.5185 11.7 12.5625 11.676 12.6185 11.676C12.6745 11.676 12.7305 11.704 12.7865 11.76C12.8185 11.792 12.8465 11.828 12.8705 11.868C12.8945 11.916 12.9145 11.956 12.9305 11.988C12.9785 12.084 13.0545 12.132 13.1585 12.132C13.3105 12.132 13.4985 12.044 13.7225 11.868C14.0505 11.62 14.3185 11.3 14.5265 10.908C14.7265 10.524 14.9025 10.112 15.0545 9.672C15.2465 9.128 15.3985 8.504 15.5105 7.8C15.6305 7.096 15.7465 6.388 15.8585 5.676C15.7625 5.684 15.6665 5.696 15.5705 5.712C15.4745 5.72 15.3825 5.728 15.2945 5.736C15.2705 5.736 15.2345 5.712 15.1865 5.664C15.1385 5.616 15.0985 5.568 15.0665 5.52C15.0425 5.464 15.0425 5.436 15.0665 5.436C15.3625 5.404 15.6425 5.38 15.9065 5.364C16.0025 4.788 16.1065 4.24 16.2185 3.72C16.3385 3.192 16.4825 2.728 16.6505 2.328C16.8265 1.928 17.0425 1.624 17.2985 1.416C17.4105 1.328 17.5425 1.284 17.6945 1.284C17.8785 1.284 18.0545 1.344 18.2225 1.464C18.3905 1.584 18.4745 1.764 18.4745 2.004C18.4745 2.132 18.4385 2.284 18.3665 2.46C18.2945 2.636 18.1705 2.828 17.9945 3.036C17.9705 3.06 17.9545 3.072 17.9465 3.072C17.9145 3.072 17.8985 3.04 17.8985 2.976C17.8985 2.912 17.9145 2.86 17.9465 2.82C18.1305 2.58 18.2225 2.36 18.2225 2.16C18.2225 1.928 18.1225 1.812 17.9225 1.812C17.7865 1.812 17.6425 1.884 17.4905 2.028C17.3305 2.172 17.1945 2.38 17.0825 2.652C16.9705 2.916 16.8585 3.256 16.7465 3.672C16.6425 4.088 16.5145 4.604 16.3625 5.22L16.3265 5.364C16.5985 5.364 16.8305 5.38 17.0225 5.412C17.2225 5.436 17.3825 5.464 17.5025 5.496C17.5265 5.504 17.5385 5.52 17.5385 5.544C17.5385 5.584 17.5145 5.604 17.4665 5.604C17.2985 5.604 17.1105 5.608 16.9025 5.616C16.7025 5.624 16.4945 5.636 16.2785 5.652C16.1505 6.372 16.0145 7.1 15.8705 7.836C15.7345 8.572 15.5625 9.228 15.3545 9.804C15.1625 10.34 14.9385 10.816 14.6825 11.232C14.4185 11.648 14.1185 11.948 13.7825 12.132C13.5105 12.276 13.2545 12.348 13.0145 12.348ZM22.1945 9.156C21.9065 9.156 21.6545 8.988 21.4385 8.652C21.2305 8.308 21.1265 7.768 21.1265 7.032C21.1265 6.552 21.1865 6.168 21.3065 5.88C21.4265 5.584 21.5745 5.368 21.7505 5.232C21.9265 5.096 22.0945 5.028 22.2545 5.028C22.4145 5.028 22.5505 5.084 22.6625 5.196C22.7745 5.3 22.8305 5.452 22.8305 5.652C22.8305 5.844 22.7745 6.048 22.6625 6.264C22.5505 6.472 22.4145 6.664 22.2545 6.84C22.1025 7.008 21.9505 7.12 21.7985 7.176C21.7665 7.192 21.7265 7.2 21.6785 7.2C21.6465 7.2 21.6305 7.188 21.6305 7.164C21.6305 7.1 21.6945 7.028 21.8225 6.948C21.9825 6.836 22.1345 6.668 22.2785 6.444C22.4225 6.212 22.4945 6.008 22.4945 5.832C22.4945 5.728 22.4705 5.648 22.4225 5.592C22.3745 5.528 22.3185 5.496 22.2545 5.496C22.1345 5.496 22.0025 5.592 21.8585 5.784C21.7225 5.968 21.6225 6.288 21.5585 6.744C21.5425 6.872 21.5265 6.996 21.5105 7.116C21.5025 7.228 21.4985 7.34 21.4985 7.452C21.4985 7.9 21.5665 8.252 21.7025 8.508C21.8385 8.756 22.0185 8.88 22.2425 8.88C22.4345 8.88 22.6505 8.768 22.8905 8.544C23.1305 8.312 23.3665 7.952 23.5985 7.464C23.6545 7.336 23.7185 7.272 23.7905 7.272C23.8385 7.272 23.8625 7.304 23.8625 7.368C23.8625 7.424 23.8465 7.484 23.8145 7.548C23.6065 8.06 23.3545 8.456 23.0585 8.736C22.7625 9.016 22.4745 9.156 22.1945 9.156ZM23.3614 9.96C23.3054 9.96 23.2854 9.916 23.3014 9.828C23.3574 9.404 23.4774 8.956 23.6614 8.484C23.8534 8.012 24.0854 7.556 24.3574 7.116C24.2294 6.836 24.1254 6.58 24.0454 6.348C23.9734 6.108 23.9214 5.936 23.8894 5.832C23.8414 5.64 23.8174 5.48 23.8174 5.352C23.8174 5.224 23.8734 5.16 23.9854 5.16C24.0814 5.16 24.1734 5.204 24.2614 5.292C24.3574 5.38 24.4254 5.472 24.4654 5.568C24.5374 5.72 24.5814 5.86 24.5974 5.988C24.6134 6.116 24.6334 6.248 24.6574 6.384L24.6934 6.6C24.8854 6.328 25.0854 6.072 25.2934 5.832C25.5094 5.592 25.7254 5.38 25.9414 5.196C25.9654 5.172 25.9934 5.16 26.0254 5.16C26.0814 5.16 26.1254 5.192 26.1574 5.256C26.1974 5.312 26.2174 5.38 26.2174 5.46C26.2174 5.532 26.1934 5.592 26.1454 5.64C25.9134 5.84 25.6814 6.064 25.4494 6.312C25.2174 6.56 24.9974 6.82 24.7894 7.092C24.8294 7.292 24.8934 7.496 24.9814 7.704C25.0694 7.904 25.2134 8.144 25.4134 8.424C25.5734 8.648 25.6934 8.76 25.7734 8.76C25.8374 8.76 25.8774 8.716 25.8934 8.628C25.9174 8.532 25.9294 8.416 25.9294 8.28C25.9294 8.096 25.9134 7.896 25.8814 7.68C25.8574 7.464 25.8294 7.268 25.7974 7.092C25.7734 6.916 25.7574 6.808 25.7494 6.768C25.7414 6.736 25.7374 6.708 25.7374 6.684C25.7374 6.652 25.7374 6.628 25.7374 6.612C25.7374 6.54 25.7534 6.504 25.7854 6.504C25.8094 6.504 25.8414 6.528 25.8814 6.576C25.9214 6.624 25.9494 6.68 25.9654 6.744C26.0134 6.872 26.0574 7.04 26.0974 7.248C26.1454 7.448 26.1854 7.648 26.2174 7.848C26.2494 8.04 26.2654 8.192 26.2654 8.304C26.2654 8.472 26.2334 8.628 26.1694 8.772C26.1134 8.916 26.0174 8.988 25.8814 8.988C25.7054 8.988 25.5294 8.904 25.3534 8.736C25.1854 8.568 25.0294 8.368 24.8854 8.136C24.7414 7.896 24.6174 7.676 24.5134 7.476C24.2734 7.828 24.0694 8.192 23.9014 8.568C23.7414 8.944 23.6334 9.32 23.5774 9.696C23.5694 9.776 23.5414 9.84 23.4934 9.888C23.4454 9.936 23.4014 9.96 23.3614 9.96ZM5.07022 26.676C4.67822 26.676 4.30222 26.504 3.94222 26.16C3.59022 25.816 3.30222 25.316 3.07822 24.66C2.85422 24.012 2.74222 23.228 2.74222 22.308C2.74222 22.196 2.74222 22.08 2.74222 21.96C2.75022 21.84 2.75822 21.716 2.76622 21.588C2.68622 21.596 2.60622 21.6 2.52622 21.6C2.45422 21.6 2.38622 21.6 2.32222 21.6C1.85822 21.6 1.51822 21.54 1.30222 21.42C1.09422 21.3 0.990219 21.144 0.990219 20.952C0.990219 20.76 1.08222 20.548 1.26622 20.316C1.45822 20.084 1.72222 19.848 2.05822 19.608C2.39422 19.368 2.78222 19.152 3.22222 18.96C3.40622 18.296 3.64622 17.596 3.94222 16.86C4.23822 16.124 4.60622 15.356 5.04622 14.556C5.10222 14.452 5.18622 14.4 5.29822 14.4C5.37022 14.4 5.43422 14.424 5.49022 14.472C5.54622 14.52 5.57422 14.584 5.57422 14.664C5.57422 14.704 5.56222 14.756 5.53822 14.82C5.47422 14.948 5.41022 15.08 5.34622 15.216C5.28222 15.344 5.21822 15.472 5.15422 15.6C5.27422 15.576 5.36622 15.564 5.43022 15.564C5.49422 15.564 5.57022 15.56 5.65822 15.552C5.74622 15.544 5.88222 15.528 6.06622 15.504C6.32222 15.464 6.56222 15.432 6.78622 15.408C7.01822 15.384 7.23422 15.372 7.43422 15.372C8.19422 15.372 8.75422 15.504 9.11422 15.768C9.47422 16.032 9.65422 16.368 9.65422 16.776C9.65422 17.264 9.41822 17.8 8.94622 18.384C8.55422 18.864 8.06222 19.328 7.47022 19.776C6.88622 20.224 6.22622 20.608 5.49022 20.928C4.76222 21.24 3.98622 21.448 3.16222 21.552C3.13022 21.784 3.10622 22.008 3.09022 22.224C3.07422 22.44 3.06622 22.644 3.06622 22.836C3.06622 23.532 3.14622 24.104 3.30622 24.552C3.47422 25.008 3.67822 25.364 3.91822 25.62C4.16622 25.876 4.41022 26.056 4.65022 26.16C4.89822 26.264 5.09822 26.316 5.25022 26.316C5.37022 26.316 5.45022 26.296 5.49022 26.256C5.52222 26.216 5.55822 26.196 5.59822 26.196C5.68622 26.196 5.73022 26.256 5.73022 26.376C5.73022 26.472 5.68622 26.536 5.59822 26.568C5.43022 26.64 5.25422 26.676 5.07022 26.676ZM3.19822 21.336C4.03822 21.168 4.79822 20.912 5.47822 20.568C6.16622 20.224 6.77422 19.828 7.30222 19.38C7.83022 18.932 8.27422 18.464 8.63422 17.976C8.84222 17.704 8.99022 17.46 9.07822 17.244C9.16622 17.02 9.21022 16.824 9.21022 16.656C9.21022 16.384 9.11422 16.168 8.92222 16.008C8.73822 15.84 8.49422 15.72 8.19022 15.648C7.88622 15.576 7.55822 15.54 7.20622 15.54C6.83822 15.54 6.47422 15.572 6.11422 15.636C5.75422 15.7 5.43422 15.784 5.15422 15.888C5.09822 15.912 5.05022 15.916 5.01022 15.9C4.77822 16.412 4.56622 16.904 4.37422 17.376C4.19022 17.84 4.02622 18.284 3.88222 18.708C4.22622 18.596 4.58622 18.5 4.96222 18.42C5.33822 18.34 5.72622 18.292 6.12622 18.276H6.17422C6.25422 18.276 6.29422 18.292 6.29422 18.324C6.29422 18.348 6.25422 18.376 6.17422 18.408C6.10222 18.44 5.97822 18.46 5.80222 18.468C5.43422 18.484 5.08622 18.532 4.75822 18.612C4.43022 18.684 4.11822 18.776 3.82222 18.888C3.67022 19.352 3.54222 19.788 3.43822 20.196C3.34222 20.604 3.26222 20.984 3.19822 21.336ZM2.37022 21.432C2.43422 21.432 2.49822 21.432 2.56222 21.432C2.63422 21.424 2.70622 21.416 2.77822 21.408C2.81022 21.064 2.85822 20.708 2.92222 20.34C2.98622 19.964 3.07022 19.576 3.17422 19.176C2.66222 19.44 2.25422 19.736 1.95022 20.064C1.64622 20.384 1.49422 20.668 1.49422 20.916C1.49422 21.068 1.56622 21.192 1.71022 21.288C1.85422 21.384 2.07422 21.432 2.37022 21.432ZM9.36894 24.6C9.11294 24.6 8.91694 24.48 8.78094 24.24C8.64494 24.008 8.57694 23.752 8.57694 23.472C8.57694 23.208 8.62094 22.932 8.70894 22.644C8.79694 22.356 8.90494 22.072 9.03294 21.792C9.16894 21.512 9.30894 21.256 9.45294 21.024C9.30894 21.08 9.17294 21.108 9.04494 21.108C8.98094 21.108 8.92494 21.1 8.87694 21.084C8.82894 21.068 8.78894 21.056 8.75694 21.048C8.71694 21.144 8.64494 21.304 8.54094 21.528C8.44494 21.752 8.34094 21.988 8.22894 22.236C8.12494 22.476 8.03294 22.68 7.95294 22.848C7.82494 23.12 7.71294 23.256 7.61694 23.256C7.56894 23.256 7.54494 23.224 7.54494 23.16C7.54494 23.112 7.56494 23.048 7.60494 22.968C7.78894 22.624 7.96094 22.284 8.12094 21.948C8.28894 21.612 8.44094 21.288 8.57694 20.976C8.56094 20.936 8.54494 20.884 8.52894 20.82C8.51294 20.748 8.50494 20.672 8.50494 20.592C8.50494 20.504 8.51294 20.412 8.52894 20.316C8.55294 20.212 8.58494 20.112 8.62494 20.016C8.64894 19.96 8.69294 19.88 8.75694 19.776C8.82094 19.664 8.89294 19.564 8.97294 19.476C9.05294 19.38 9.12894 19.332 9.20094 19.332C9.33694 19.332 9.40494 19.404 9.40494 19.548C9.40494 19.684 9.36094 19.84 9.27294 20.016C9.19294 20.192 9.10894 20.356 9.02094 20.508C8.93294 20.652 8.88894 20.76 8.88894 20.832C8.88894 20.896 8.92094 20.928 8.98494 20.928C9.07294 20.928 9.18094 20.884 9.30894 20.796C9.44494 20.7 9.55294 20.612 9.63294 20.532C9.67294 20.492 9.73694 20.432 9.82494 20.352C9.91294 20.264 9.99694 20.22 10.0769 20.22C10.1569 20.22 10.2089 20.244 10.2329 20.292C10.2649 20.34 10.2809 20.396 10.2809 20.46C10.2809 20.532 10.2489 20.624 10.1849 20.736C10.1209 20.84 10.0449 20.944 9.95694 21.048C9.87694 21.152 9.80894 21.24 9.75294 21.312C9.64094 21.48 9.51294 21.692 9.36894 21.948C9.22494 22.204 9.10094 22.48 8.99694 22.776C8.89294 23.064 8.84094 23.34 8.84094 23.604C8.84094 23.78 8.88494 23.964 8.97294 24.156C9.06094 24.348 9.18094 24.444 9.33294 24.444C9.46894 24.444 9.61294 24.372 9.76494 24.228C9.92494 24.084 10.0729 23.912 10.2089 23.712C10.3529 23.512 10.4769 23.32 10.5809 23.136C10.6929 22.952 10.7689 22.824 10.8089 22.752C10.8249 22.712 10.8529 22.664 10.8929 22.608C10.9329 22.544 10.9809 22.512 11.0369 22.512C11.0849 22.512 11.1089 22.536 11.1089 22.584C11.1089 22.624 11.0969 22.672 11.0729 22.728C11.0569 22.776 11.0409 22.82 11.0249 22.86C10.9529 23.028 10.8649 23.204 10.7609 23.388C10.6569 23.572 10.5849 23.696 10.5449 23.76C10.4329 23.944 10.2649 24.128 10.0409 24.312C9.82494 24.504 9.60094 24.6 9.36894 24.6ZM12.043 24.42C11.779 24.42 11.563 24.34 11.395 24.18C11.235 24.02 11.115 23.816 11.035 23.568C10.955 23.312 10.915 23.044 10.915 22.764C10.915 22.596 10.931 22.436 10.963 22.284C10.995 22.132 11.027 22.008 11.059 21.912C11.051 21.856 11.043 21.8 11.035 21.744C11.035 21.68 11.035 21.616 11.035 21.552C11.035 21.32 11.059 21.068 11.107 20.796C11.155 20.524 11.231 20.264 11.335 20.016C11.447 19.768 11.583 19.568 11.743 19.416C11.911 19.256 12.115 19.176 12.355 19.176C12.563 19.176 12.767 19.264 12.967 19.44C13.167 19.608 13.343 19.856 13.495 20.184C13.583 20.368 13.643 20.568 13.675 20.784C13.715 20.992 13.735 21.204 13.735 21.42C13.735 21.716 13.703 22.012 13.639 22.308C13.583 22.596 13.499 22.868 13.387 23.124C13.307 23.308 13.199 23.504 13.063 23.712C12.935 23.912 12.787 24.08 12.619 24.216C12.451 24.352 12.259 24.42 12.043 24.42ZM12.103 24.156C12.375 24.156 12.627 23.968 12.859 23.592C13.027 23.328 13.147 23.028 13.219 22.692C13.291 22.348 13.327 22.004 13.327 21.66C13.327 21.404 13.311 21.156 13.279 20.916C13.247 20.676 13.199 20.444 13.135 20.22C13.079 20.02 12.983 19.844 12.847 19.692C12.719 19.532 12.535 19.464 12.295 19.488C12.103 19.504 11.935 19.6 11.791 19.776C11.647 19.952 11.535 20.152 11.455 20.376C11.383 20.592 11.347 20.78 11.347 20.94C11.347 21.028 11.359 21.096 11.383 21.144C11.407 21.08 11.467 20.976 11.563 20.832C11.659 20.68 11.767 20.544 11.887 20.424C12.007 20.296 12.119 20.232 12.223 20.232C12.311 20.232 12.355 20.268 12.355 20.34C12.251 20.348 12.147 20.412 12.043 20.532C11.947 20.644 11.855 20.78 11.767 20.94C11.687 21.1 11.619 21.26 11.563 21.42C11.515 21.572 11.479 21.692 11.455 21.78C11.447 21.812 11.435 21.852 11.419 21.9C11.403 21.948 11.395 21.996 11.395 22.044C11.395 22.1 11.427 22.192 11.491 22.32C11.555 22.44 11.659 22.552 11.803 22.656C11.947 22.76 12.143 22.812 12.391 22.812C12.463 22.812 12.539 22.804 12.619 22.788C12.699 22.772 12.775 22.756 12.847 22.74L12.931 22.716C12.947 22.716 12.955 22.724 12.955 22.74C12.955 22.764 12.927 22.796 12.871 22.836C12.823 22.868 12.779 22.892 12.739 22.908C12.627 22.964 12.503 22.992 12.367 22.992C12.167 22.992 11.975 22.932 11.791 22.812C11.615 22.684 11.459 22.54 11.323 22.38C11.315 22.444 11.311 22.508 11.311 22.572C11.311 22.628 11.311 22.684 11.311 22.74C11.311 23.204 11.391 23.556 11.551 23.796C11.711 24.036 11.895 24.156 12.103 24.156ZM15.1685 25.92C15.0885 25.92 15.0045 25.868 14.9165 25.764C14.8365 25.668 14.7605 25.532 14.6885 25.356C14.5685 25.068 14.4845 24.764 14.4365 24.444C14.3885 24.132 14.3645 23.816 14.3645 23.496C14.3645 23.144 14.3885 22.8 14.4365 22.464C14.4845 22.128 14.5365 21.824 14.5925 21.552C14.6325 21.36 14.6805 21.156 14.7365 20.94C14.7925 20.724 14.8445 20.552 14.8925 20.424C14.8445 20.432 14.7685 20.46 14.6645 20.508C14.5605 20.556 14.4525 20.604 14.3405 20.652C14.2365 20.7 14.1445 20.724 14.0645 20.724C13.9445 20.724 13.8845 20.656 13.8845 20.52C13.8845 20.448 13.9085 20.384 13.9565 20.328C14.0125 20.272 14.0805 20.228 14.1605 20.196C14.3205 20.124 14.4965 20.072 14.6885 20.04C14.8805 20 15.0085 19.96 15.0725 19.92L15.3845 19.128C15.4165 19.048 15.4725 18.92 15.5525 18.744C15.6405 18.56 15.7405 18.364 15.8525 18.156C15.9725 17.948 16.0885 17.76 16.2005 17.592C16.2885 17.464 16.3725 17.364 16.4525 17.292C16.5325 17.212 16.6205 17.172 16.7165 17.172C16.8605 17.172 16.9325 17.228 16.9325 17.34C16.9325 17.404 16.9045 17.5 16.8485 17.628C16.8005 17.756 16.7085 17.924 16.5725 18.132C16.4205 18.372 16.2645 18.612 16.1045 18.852C15.9525 19.084 15.8205 19.328 15.7085 19.584C15.7005 19.616 15.6805 19.668 15.6485 19.74C15.6245 19.804 15.6045 19.844 15.5885 19.86L15.8285 19.824C15.8925 19.816 15.9645 19.812 16.0445 19.812C16.1245 19.804 16.2125 19.8 16.3085 19.8C16.4445 19.8 16.5725 19.808 16.6925 19.824C16.8205 19.832 16.9245 19.852 17.0045 19.884C17.0445 19.9 17.0805 19.92 17.1125 19.944C17.1525 19.96 17.1725 19.976 17.1725 19.992C17.1725 20.024 17.0685 20.04 16.8605 20.04C16.7405 20.04 16.5685 20.06 16.3445 20.1C16.1285 20.14 15.8805 20.204 15.6005 20.292C15.4645 20.332 15.3725 20.388 15.3245 20.46C15.2765 20.532 15.2125 20.704 15.1325 20.976C15.0125 21.408 14.9165 21.824 14.8445 22.224C14.7725 22.616 14.7165 23.016 14.6765 23.424C14.6685 23.504 14.6605 23.588 14.6525 23.676C14.6525 23.764 14.6525 23.86 14.6525 23.964C14.6525 24.236 14.6765 24.52 14.7245 24.816C14.7805 25.112 14.8605 25.368 14.9645 25.584C14.9885 25.632 15.0125 25.676 15.0365 25.716C15.0685 25.756 15.1045 25.784 15.1445 25.8C15.2005 25.824 15.2285 25.852 15.2285 25.884C15.2285 25.908 15.2085 25.92 15.1685 25.92ZM17.3281 24.42C17.0641 24.42 16.8481 24.34 16.6801 24.18C16.5201 24.02 16.4001 23.816 16.3201 23.568C16.2401 23.312 16.2001 23.044 16.2001 22.764C16.2001 22.596 16.2161 22.436 16.2481 22.284C16.2801 22.132 16.3121 22.008 16.3441 21.912C16.3361 21.856 16.3281 21.8 16.3201 21.744C16.3201 21.68 16.3201 21.616 16.3201 21.552C16.3201 21.32 16.3441 21.068 16.3921 20.796C16.4401 20.524 16.5161 20.264 16.6201 20.016C16.7321 19.768 16.8681 19.568 17.0281 19.416C17.1961 19.256 17.4001 19.176 17.6401 19.176C17.8481 19.176 18.0521 19.264 18.2521 19.44C18.4521 19.608 18.6281 19.856 18.7801 20.184C18.8681 20.368 18.9281 20.568 18.9601 20.784C19.0001 20.992 19.0201 21.204 19.0201 21.42C19.0201 21.716 18.9881 22.012 18.9241 22.308C18.8681 22.596 18.7841 22.868 18.6721 23.124C18.5921 23.308 18.4841 23.504 18.3481 23.712C18.2201 23.912 18.0721 24.08 17.9041 24.216C17.7361 24.352 17.5441 24.42 17.3281 24.42ZM17.3881 24.156C17.6601 24.156 17.9121 23.968 18.1441 23.592C18.3121 23.328 18.4321 23.028 18.5041 22.692C18.5761 22.348 18.6121 22.004 18.6121 21.66C18.6121 21.404 18.5961 21.156 18.5641 20.916C18.5321 20.676 18.4841 20.444 18.4201 20.22C18.3641 20.02 18.2681 19.844 18.1321 19.692C18.0041 19.532 17.8201 19.464 17.5801 19.488C17.3881 19.504 17.2201 19.6 17.0761 19.776C16.9321 19.952 16.8201 20.152 16.7401 20.376C16.6681 20.592 16.6321 20.78 16.6321 20.94C16.6321 21.028 16.6441 21.096 16.6681 21.144C16.6921 21.08 16.7521 20.976 16.8481 20.832C16.9441 20.68 17.0521 20.544 17.1721 20.424C17.2921 20.296 17.4041 20.232 17.5081 20.232C17.5961 20.232 17.6401 20.268 17.6401 20.34C17.5361 20.348 17.4321 20.412 17.3281 20.532C17.2321 20.644 17.1401 20.78 17.0521 20.94C16.9721 21.1 16.9041 21.26 16.8481 21.42C16.8001 21.572 16.7641 21.692 16.7401 21.78C16.7321 21.812 16.7201 21.852 16.7041 21.9C16.6881 21.948 16.6801 21.996 16.6801 22.044C16.6801 22.1 16.7121 22.192 16.7761 22.32C16.8401 22.44 16.9441 22.552 17.0881 22.656C17.2321 22.76 17.4281 22.812 17.6761 22.812C17.7481 22.812 17.8241 22.804 17.9041 22.788C17.9841 22.772 18.0601 22.756 18.1321 22.74L18.2161 22.716C18.2321 22.716 18.2401 22.724 18.2401 22.74C18.2401 22.764 18.2121 22.796 18.1561 22.836C18.1081 22.868 18.0641 22.892 18.0241 22.908C17.9121 22.964 17.7881 22.992 17.6521 22.992C17.4521 22.992 17.2601 22.932 17.0761 22.812C16.9001 22.684 16.7441 22.54 16.6081 22.38C16.6001 22.444 16.5961 22.508 16.5961 22.572C16.5961 22.628 16.5961 22.684 16.5961 22.74C16.5961 23.204 16.6761 23.556 16.8361 23.796C16.9961 24.036 17.1801 24.156 17.3881 24.156ZM19.9977 24.24C19.7977 24.24 19.6217 24.168 19.4697 24.024C19.3257 23.888 19.2537 23.652 19.2537 23.316C19.2537 23.14 19.2897 22.924 19.3617 22.668C19.4337 22.404 19.5297 22.128 19.6497 21.84C19.7777 21.552 19.9217 21.284 20.0817 21.036C20.2417 20.788 20.4097 20.584 20.5857 20.424C20.7617 20.264 20.9337 20.184 21.1017 20.184C21.2377 20.184 21.3337 20.232 21.3897 20.328C21.4537 20.424 21.4857 20.528 21.4857 20.64C21.4857 20.736 21.4657 20.824 21.4257 20.904C21.3937 20.976 21.3457 21.012 21.2817 21.012C21.2177 21.012 21.1697 20.984 21.1377 20.928C21.1137 20.864 21.0897 20.804 21.0657 20.748C21.0497 20.684 21.0057 20.652 20.9337 20.652C20.7897 20.652 20.6457 20.748 20.5017 20.94C20.3577 21.124 20.2257 21.36 20.1057 21.648C19.9857 21.936 19.8897 22.232 19.8177 22.536C19.7457 22.84 19.7097 23.108 19.7097 23.34C19.7097 23.54 19.7337 23.688 19.7817 23.784C19.8377 23.872 19.9377 23.916 20.0817 23.916C20.2657 23.916 20.4417 23.864 20.6097 23.76C20.7857 23.648 20.9457 23.512 21.0897 23.352C21.2337 23.192 21.3537 23.04 21.4497 22.896C21.5537 22.752 21.6257 22.644 21.6657 22.572C21.7617 22.388 21.8377 22.296 21.8937 22.296C21.9177 22.296 21.9297 22.328 21.9297 22.392C21.9297 22.472 21.9137 22.552 21.8817 22.632C21.8497 22.704 21.8177 22.772 21.7857 22.836C21.6737 23.076 21.5217 23.304 21.3297 23.52C21.1377 23.728 20.9257 23.9 20.6937 24.036C20.4697 24.172 20.2377 24.24 19.9977 24.24ZM23.1406 24.42C22.8766 24.42 22.6606 24.34 22.4926 24.18C22.3326 24.02 22.2126 23.816 22.1326 23.568C22.0526 23.312 22.0126 23.044 22.0126 22.764C22.0126 22.596 22.0286 22.436 22.0606 22.284C22.0926 22.132 22.1246 22.008 22.1566 21.912C22.1486 21.856 22.1406 21.8 22.1326 21.744C22.1326 21.68 22.1326 21.616 22.1326 21.552C22.1326 21.32 22.1566 21.068 22.2046 20.796C22.2526 20.524 22.3286 20.264 22.4326 20.016C22.5446 19.768 22.6806 19.568 22.8406 19.416C23.0086 19.256 23.2126 19.176 23.4526 19.176C23.6606 19.176 23.8646 19.264 24.0646 19.44C24.2646 19.608 24.4406 19.856 24.5926 20.184C24.6806 20.368 24.7406 20.568 24.7726 20.784C24.8126 20.992 24.8326 21.204 24.8326 21.42C24.8326 21.716 24.8006 22.012 24.7366 22.308C24.6806 22.596 24.5966 22.868 24.4846 23.124C24.4046 23.308 24.2966 23.504 24.1606 23.712C24.0326 23.912 23.8846 24.08 23.7166 24.216C23.5486 24.352 23.3566 24.42 23.1406 24.42ZM23.2006 24.156C23.4726 24.156 23.7246 23.968 23.9566 23.592C24.1246 23.328 24.2446 23.028 24.3166 22.692C24.3886 22.348 24.4246 22.004 24.4246 21.66C24.4246 21.404 24.4086 21.156 24.3766 20.916C24.3446 20.676 24.2966 20.444 24.2326 20.22C24.1766 20.02 24.0806 19.844 23.9446 19.692C23.8166 19.532 23.6326 19.464 23.3926 19.488C23.2006 19.504 23.0326 19.6 22.8886 19.776C22.7446 19.952 22.6326 20.152 22.5526 20.376C22.4806 20.592 22.4446 20.78 22.4446 20.94C22.4446 21.028 22.4566 21.096 22.4806 21.144C22.5046 21.08 22.5646 20.976 22.6606 20.832C22.7566 20.68 22.8646 20.544 22.9846 20.424C23.1046 20.296 23.2166 20.232 23.3206 20.232C23.4086 20.232 23.4526 20.268 23.4526 20.34C23.3486 20.348 23.2446 20.412 23.1406 20.532C23.0446 20.644 22.9526 20.78 22.8646 20.94C22.7846 21.1 22.7166 21.26 22.6606 21.42C22.6126 21.572 22.5766 21.692 22.5526 21.78C22.5446 21.812 22.5326 21.852 22.5166 21.9C22.5006 21.948 22.4926 21.996 22.4926 22.044C22.4926 22.1 22.5246 22.192 22.5886 22.32C22.6526 22.44 22.7566 22.552 22.9006 22.656C23.0446 22.76 23.2406 22.812 23.4886 22.812C23.5606 22.812 23.6366 22.804 23.7166 22.788C23.7966 22.772 23.8726 22.756 23.9446 22.74L24.0286 22.716C24.0446 22.716 24.0526 22.724 24.0526 22.74C24.0526 22.764 24.0246 22.796 23.9686 22.836C23.9206 22.868 23.8766 22.892 23.8366 22.908C23.7246 22.964 23.6006 22.992 23.4646 22.992C23.2646 22.992 23.0726 22.932 22.8886 22.812C22.7126 22.684 22.5566 22.54 22.4206 22.38C22.4126 22.444 22.4086 22.508 22.4086 22.572C22.4086 22.628 22.4086 22.684 22.4086 22.74C22.4086 23.204 22.4886 23.556 22.6486 23.796C22.8086 24.036 22.9926 24.156 23.2006 24.156ZM27.0582 25.908C26.9542 25.908 26.8542 25.868 26.7582 25.788C26.6702 25.708 26.5942 25.628 26.5302 25.548C26.2742 25.252 26.0582 24.86 25.8822 24.372C25.7142 23.884 25.5862 23.348 25.4982 22.764C25.4102 22.172 25.3662 21.572 25.3662 20.964C25.3662 20.396 25.4022 19.844 25.4742 19.308C25.5542 18.772 25.6742 18.284 25.8342 17.844C25.9942 17.404 26.1942 17.052 26.4342 16.788C26.7462 16.436 27.0462 16.26 27.3342 16.26C27.5102 16.26 27.6502 16.34 27.7542 16.5C27.8662 16.652 27.9222 16.896 27.9222 17.232C27.9222 17.552 27.8582 17.96 27.7302 18.456C27.6102 18.944 27.4022 19.528 27.1062 20.208C27.0022 20.432 26.8902 20.656 26.7702 20.88C26.6582 21.104 26.5382 21.34 26.4102 21.588C26.3622 21.684 26.3222 21.732 26.2902 21.732C26.2742 21.732 26.2662 21.716 26.2662 21.684C26.2662 21.62 26.2942 21.536 26.3502 21.432C27.0782 20.064 27.4422 18.704 27.4422 17.352C27.4422 16.816 27.3302 16.548 27.1062 16.548C26.9462 16.548 26.7582 16.704 26.5422 17.016C26.2462 17.456 26.0422 17.98 25.9302 18.588C25.8182 19.188 25.7622 19.796 25.7622 20.412C25.7622 20.876 25.7822 21.328 25.8222 21.768C25.8622 22.2 25.9102 22.592 25.9662 22.944C25.9902 23.096 26.0262 23.3 26.0742 23.556C26.1222 23.812 26.1862 24.08 26.2662 24.36C26.3462 24.648 26.4342 24.908 26.5302 25.14C26.6342 25.38 26.7462 25.552 26.8662 25.656C26.8982 25.68 26.9302 25.704 26.9622 25.728C27.0022 25.76 27.0462 25.78 27.0942 25.788C27.1662 25.788 27.2022 25.808 27.2022 25.848C27.2022 25.888 27.1542 25.908 27.0582 25.908Z" fill="white"/>
</svg>
