<svg width="26" height="13" viewBox="0 0 26 13" fill="none" xmlns="http://www.w3.org/2000/svg">
<path d="M2.788 11.916C2.476 11.916 2.176 11.8 1.888 11.568C1.6 11.344 1.352 10.972 1.144 10.452C1.072 10.268 1.02 10.076 0.988 9.876C0.956 9.676 0.94 9.476 0.94 9.276C0.94 8.948 0.976 8.62 1.048 8.292C1.12 7.964 1.212 7.656 1.324 7.368C1.412 7.16 1.536 6.928 1.696 6.672C1.856 6.408 2.008 6.192 2.152 6.024C2.2 5.976 2.26 5.924 2.332 5.868C2.404 5.804 2.452 5.772 2.476 5.772C2.484 5.772 2.488 5.776 2.488 5.784C2.488 5.808 2.42 5.904 2.284 6.072C1.956 6.472 1.712 6.928 1.552 7.44C1.4 7.944 1.324 8.444 1.324 8.94C1.324 9.236 1.348 9.52 1.396 9.792C1.452 10.064 1.524 10.316 1.612 10.548C1.78 10.972 1.96 11.276 2.152 11.46C2.352 11.644 2.56 11.736 2.776 11.736C3.048 11.736 3.324 11.62 3.604 11.388C3.884 11.156 4.156 10.848 4.42 10.464C4.692 10.08 4.944 9.664 5.176 9.216C5.408 8.768 5.608 8.324 5.776 7.884C5.952 7.436 6.08 7.036 6.16 6.684L6.34 5.94C6.3 5.932 6.28 5.916 6.28 5.892C6.28 5.852 6.312 5.812 6.376 5.772C6.472 5.34 6.544 4.916 6.592 4.5C6.648 4.084 6.676 3.7 6.676 3.348C6.676 2.964 6.64 2.628 6.568 2.34C6.504 2.044 6.396 1.82 6.244 1.668C6.18 1.604 6.108 1.572 6.028 1.572C5.972 1.572 5.912 1.588 5.848 1.62C5.792 1.652 5.736 1.692 5.68 1.74C5.624 1.796 5.616 1.784 5.656 1.704C5.704 1.616 5.78 1.52 5.884 1.416C5.996 1.312 6.116 1.26 6.244 1.26C6.316 1.26 6.388 1.284 6.46 1.332C6.716 1.508 6.896 1.776 7 2.136C7.112 2.496 7.168 2.912 7.168 3.384C7.168 3.696 7.148 4.024 7.108 4.368C7.068 4.712 7.012 5.064 6.94 5.424C6.956 5.44 6.968 5.46 6.976 5.484C6.992 5.508 7.008 5.532 7.024 5.556C7.992 5.244 8.768 4.912 9.352 4.56C9.944 4.208 10.372 3.852 10.636 3.492C10.908 3.132 11.044 2.788 11.044 2.46C11.044 2.116 10.916 1.808 10.66 1.536C10.404 1.264 10.052 1.048 9.604 0.887999C9.156 0.727999 8.64 0.648 8.056 0.648C7.512 0.648 6.948 0.724 6.364 0.875999C5.836 1.02 5.332 1.232 4.852 1.512C4.38 1.784 3.956 2.088 3.58 2.424C3.212 2.76 2.912 3.092 2.68 3.42C2.456 3.748 2.328 4.036 2.296 4.284C2.28 4.46 2.248 4.588 2.2 4.668C2.16 4.748 2.12 4.788 2.08 4.788C1.96 4.788 1.9 4.644 1.9 4.356C1.9 4.316 1.9 4.276 1.9 4.236C1.908 4.196 1.916 4.156 1.924 4.116C1.972 3.756 2.132 3.396 2.404 3.036C2.684 2.676 3.036 2.34 3.46 2.028C3.892 1.708 4.364 1.424 4.876 1.176C5.388 0.928 5.9 0.736 6.412 0.599999C6.74 0.512 7.06 0.448 7.372 0.408C7.692 0.368 8 0.348 8.296 0.348C8.944 0.348 9.516 0.436 10.012 0.611999C10.508 0.787999 10.896 1.028 11.176 1.332C11.456 1.628 11.596 1.968 11.596 2.352C11.596 2.672 11.476 3.012 11.236 3.372C10.996 3.732 10.612 4.092 10.084 4.452C9.556 4.812 8.86 5.16 7.996 5.496C7.82 5.56 7.66 5.616 7.516 5.664C7.38 5.712 7.256 5.756 7.144 5.796C7.304 6.084 7.512 6.42 7.768 6.804C8.024 7.188 8.296 7.576 8.584 7.968C8.88 8.36 9.172 8.716 9.46 9.036C9.748 9.356 10.008 9.6 10.24 9.768C10.384 9.872 10.552 9.976 10.744 10.08C10.944 10.192 11.136 10.248 11.32 10.248C11.504 10.248 11.644 10.196 11.74 10.092C11.836 9.996 11.904 9.872 11.944 9.72C11.984 9.568 12.004 9.416 12.004 9.264C12.004 8.744 11.852 8.264 11.548 7.824C11.524 7.784 11.512 7.76 11.512 7.752C11.512 7.728 11.524 7.716 11.548 7.716C11.596 7.716 11.644 7.748 11.692 7.812C11.852 8.004 11.98 8.228 12.076 8.484C12.172 8.74 12.22 8.996 12.22 9.252C12.22 9.644 12.104 9.972 11.872 10.236C11.648 10.508 11.34 10.644 10.948 10.644C10.54 10.644 10.16 10.532 9.808 10.308C9.464 10.084 9.144 9.788 8.848 9.42C8.552 9.052 8.284 8.656 8.044 8.232C7.804 7.8 7.592 7.376 7.408 6.96C7.224 6.544 7.064 6.176 6.928 5.856L6.844 5.88C6.716 6.432 6.568 6.968 6.4 7.488C6.24 8.008 6.072 8.48 5.896 8.904C5.68 9.432 5.4 9.924 5.056 10.38C4.72 10.844 4.352 11.216 3.952 11.496C3.56 11.776 3.172 11.916 2.788 11.916ZM13.2198 9.156C12.9318 9.156 12.6798 8.988 12.4638 8.652C12.2558 8.308 12.1518 7.768 12.1518 7.032C12.1518 6.552 12.2118 6.168 12.3318 5.88C12.4518 5.584 12.5998 5.368 12.7758 5.232C12.9518 5.096 13.1198 5.028 13.2798 5.028C13.4398 5.028 13.5758 5.084 13.6878 5.196C13.7998 5.3 13.8558 5.452 13.8558 5.652C13.8558 5.844 13.7998 6.048 13.6878 6.264C13.5758 6.472 13.4398 6.664 13.2798 6.84C13.1278 7.008 12.9758 7.12 12.8238 7.176C12.7918 7.192 12.7518 7.2 12.7038 7.2C12.6718 7.2 12.6558 7.188 12.6558 7.164C12.6558 7.1 12.7198 7.028 12.8478 6.948C13.0078 6.836 13.1598 6.668 13.3038 6.444C13.4478 6.212 13.5198 6.008 13.5198 5.832C13.5198 5.728 13.4958 5.648 13.4478 5.592C13.3998 5.528 13.3438 5.496 13.2798 5.496C13.1598 5.496 13.0278 5.592 12.8838 5.784C12.7478 5.968 12.6478 6.288 12.5838 6.744C12.5678 6.872 12.5518 6.996 12.5358 7.116C12.5278 7.228 12.5238 7.34 12.5238 7.452C12.5238 7.9 12.5918 8.252 12.7278 8.508C12.8638 8.756 13.0438 8.88 13.2678 8.88C13.4598 8.88 13.6758 8.768 13.9158 8.544C14.1558 8.312 14.3918 7.952 14.6238 7.464C14.6798 7.336 14.7438 7.272 14.8158 7.272C14.8638 7.272 14.8878 7.304 14.8878 7.368C14.8878 7.424 14.8718 7.484 14.8398 7.548C14.6318 8.06 14.3798 8.456 14.0838 8.736C13.7878 9.016 13.4998 9.156 13.2198 9.156ZM18.3948 9.912C18.2588 9.912 18.1428 9.856 18.0468 9.744C17.9588 9.64 17.8908 9.54 17.8428 9.444C17.6908 9.164 17.5788 8.836 17.5068 8.46C17.4348 8.076 17.3988 7.664 17.3988 7.224C17.3988 6.648 17.4548 6.048 17.5668 5.424C17.6788 4.8 17.8388 4.2 18.0468 3.624C18.2548 3.04 18.5028 2.528 18.7908 2.088C19.0788 1.64 19.3948 1.308 19.7388 1.092C20.0428 0.892 20.3308 0.792 20.6028 0.792C20.7868 0.792 20.9348 0.848 21.0468 0.96C21.1588 1.064 21.2148 1.232 21.2148 1.464C21.2148 1.76 21.0948 2.16 20.8548 2.664C20.6148 3.168 20.2108 3.78 19.6428 4.5C19.4908 4.692 19.3268 4.88 19.1508 5.064C18.9828 5.248 18.8068 5.444 18.6228 5.652C18.5588 5.716 18.5108 5.748 18.4788 5.748C18.4628 5.748 18.4548 5.74 18.4548 5.724C18.4548 5.668 18.5028 5.588 18.5988 5.484C18.9588 5.1 19.2548 4.74 19.4868 4.404C19.7268 4.06 19.9268 3.708 20.0868 3.348C20.2548 2.98 20.4108 2.572 20.5547 2.124C20.6428 1.836 20.6868 1.608 20.6868 1.44C20.6868 1.16 20.5908 1.02 20.3988 1.02C20.2548 1.02 20.0548 1.124 19.7988 1.332C19.4388 1.636 19.1388 2.016 18.8988 2.472C18.6668 2.928 18.4788 3.416 18.3348 3.936C18.1988 4.456 18.0948 4.968 18.0228 5.472C17.9508 5.976 17.8988 6.428 17.8668 6.828C17.8428 7.02 17.8308 7.308 17.8308 7.692C17.8308 7.924 17.8388 8.168 17.8548 8.424C17.8788 8.68 17.9148 8.912 17.9628 9.12C18.0108 9.336 18.0788 9.504 18.1668 9.624C18.1828 9.656 18.2068 9.688 18.2388 9.72C18.2788 9.76 18.3188 9.788 18.3588 9.804C18.4228 9.828 18.4548 9.852 18.4548 9.876C18.4548 9.9 18.4348 9.912 18.3948 9.912ZM12.4187 12.348C12.2587 12.348 12.1307 12.316 12.0347 12.252C11.9627 12.204 11.9027 12.136 11.8547 12.048C11.8387 12 11.8307 11.96 11.8307 11.928C11.8307 11.864 11.8507 11.804 11.8907 11.748C11.9227 11.7 11.9667 11.676 12.0227 11.676C12.0787 11.676 12.1347 11.704 12.1907 11.76C12.2227 11.792 12.2507 11.828 12.2747 11.868C12.2987 11.916 12.3187 11.956 12.3347 11.988C12.3827 12.084 12.4587 12.132 12.5627 12.132C12.7147 12.132 12.9027 12.044 13.1267 11.868C13.4547 11.62 13.7227 11.3 13.9307 10.908C14.1307 10.524 14.3068 10.112 14.4588 9.672C14.6508 9.128 14.8028 8.504 14.9148 7.8C15.0348 7.096 15.1508 6.388 15.2628 5.676C15.1668 5.684 15.0708 5.696 14.9748 5.712C14.8788 5.72 14.7868 5.728 14.6988 5.736C14.6748 5.736 14.6388 5.712 14.5908 5.664C14.5428 5.616 14.5028 5.568 14.4708 5.52C14.4468 5.464 14.4468 5.436 14.4708 5.436C14.7668 5.404 15.0468 5.38 15.3108 5.364C15.4068 4.788 15.5108 4.24 15.6228 3.72C15.7428 3.192 15.8868 2.728 16.0548 2.328C16.2308 1.928 16.4468 1.624 16.7028 1.416C16.8148 1.328 16.9468 1.284 17.0988 1.284C17.2828 1.284 17.4588 1.344 17.6268 1.464C17.7948 1.584 17.8788 1.764 17.8788 2.004C17.8788 2.132 17.8428 2.284 17.7708 2.46C17.6988 2.636 17.5748 2.828 17.3988 3.036C17.3748 3.06 17.3588 3.072 17.3508 3.072C17.3188 3.072 17.3027 3.04 17.3027 2.976C17.3027 2.912 17.3188 2.86 17.3508 2.82C17.5348 2.58 17.6268 2.36 17.6268 2.16C17.6268 1.928 17.5268 1.812 17.3268 1.812C17.1908 1.812 17.0468 1.884 16.8948 2.028C16.7348 2.172 16.5988 2.38 16.4868 2.652C16.3748 2.916 16.2628 3.256 16.1508 3.672C16.0468 4.088 15.9188 4.604 15.7668 5.22L15.7308 5.364C16.0028 5.364 16.2348 5.38 16.4268 5.412C16.6268 5.436 16.7868 5.464 16.9068 5.496C16.9308 5.504 16.9428 5.52 16.9428 5.544C16.9428 5.584 16.9188 5.604 16.8708 5.604C16.7028 5.604 16.5148 5.608 16.3068 5.616C16.1068 5.624 15.8988 5.636 15.6828 5.652C15.5548 6.372 15.4188 7.1 15.2748 7.836C15.1388 8.572 14.9668 9.228 14.7588 9.804C14.5668 10.34 14.3428 10.816 14.0867 11.232C13.8227 11.648 13.5227 11.948 13.1867 12.132C12.9147 12.276 12.6587 12.348 12.4187 12.348ZM21.5988 9.156C21.3108 9.156 21.0588 8.988 20.8428 8.652C20.6348 8.308 20.5308 7.768 20.5308 7.032C20.5308 6.552 20.5908 6.168 20.7108 5.88C20.8308 5.584 20.9788 5.368 21.1548 5.232C21.3308 5.096 21.4988 5.028 21.6588 5.028C21.8188 5.028 21.9548 5.084 22.0668 5.196C22.1788 5.3 22.2348 5.452 22.2348 5.652C22.2348 5.844 22.1788 6.048 22.0668 6.264C21.9548 6.472 21.8188 6.664 21.6588 6.84C21.5068 7.008 21.3548 7.12 21.2028 7.176C21.1708 7.192 21.1308 7.2 21.0828 7.2C21.0508 7.2 21.0348 7.188 21.0348 7.164C21.0348 7.1 21.0988 7.028 21.2268 6.948C21.3868 6.836 21.5388 6.668 21.6828 6.444C21.8268 6.212 21.8988 6.008 21.8988 5.832C21.8988 5.728 21.8748 5.648 21.8268 5.592C21.7788 5.528 21.7228 5.496 21.6588 5.496C21.5388 5.496 21.4068 5.592 21.2628 5.784C21.1268 5.968 21.0268 6.288 20.9628 6.744C20.9468 6.872 20.9308 6.996 20.9148 7.116C20.9068 7.228 20.9028 7.34 20.9028 7.452C20.9028 7.9 20.9708 8.252 21.1068 8.508C21.2428 8.756 21.4228 8.88 21.6468 8.88C21.8388 8.88 22.0548 8.768 22.2948 8.544C22.5348 8.312 22.7708 7.952 23.0028 7.464C23.0588 7.336 23.1228 7.272 23.1948 7.272C23.2428 7.272 23.2668 7.304 23.2668 7.368C23.2668 7.424 23.2508 7.484 23.2188 7.548C23.0108 8.06 22.7588 8.456 22.4628 8.736C22.1668 9.016 21.8788 9.156 21.5988 9.156ZM22.7657 9.96C22.7097 9.96 22.6897 9.916 22.7057 9.828C22.7617 9.404 22.8817 8.956 23.0657 8.484C23.2577 8.012 23.4897 7.556 23.7617 7.116C23.6337 6.836 23.5297 6.58 23.4497 6.348C23.3777 6.108 23.3257 5.936 23.2937 5.832C23.2457 5.64 23.2217 5.48 23.2217 5.352C23.2217 5.224 23.2777 5.16 23.3897 5.16C23.4857 5.16 23.5777 5.204 23.6657 5.292C23.7617 5.38 23.8297 5.472 23.8697 5.568C23.9417 5.72 23.9857 5.86 24.0017 5.988C24.0177 6.116 24.0377 6.248 24.0617 6.384L24.0977 6.6C24.2897 6.328 24.4897 6.072 24.6977 5.832C24.9137 5.592 25.1297 5.38 25.3457 5.196C25.3697 5.172 25.3977 5.16 25.4297 5.16C25.4857 5.16 25.5297 5.192 25.5617 5.256C25.6017 5.312 25.6217 5.38 25.6217 5.46C25.6217 5.532 25.5977 5.592 25.5497 5.64C25.3177 5.84 25.0857 6.064 24.8537 6.312C24.6217 6.56 24.4017 6.82 24.1937 7.092C24.2337 7.292 24.2977 7.496 24.3857 7.704C24.4737 7.904 24.6177 8.144 24.8177 8.424C24.9777 8.648 25.0977 8.76 25.1777 8.76C25.2417 8.76 25.2817 8.716 25.2977 8.628C25.3217 8.532 25.3337 8.416 25.3337 8.28C25.3337 8.096 25.3177 7.896 25.2857 7.68C25.2617 7.464 25.2337 7.268 25.2017 7.092C25.1777 6.916 25.1617 6.808 25.1537 6.768C25.1457 6.736 25.1417 6.708 25.1417 6.684C25.1417 6.652 25.1417 6.628 25.1417 6.612C25.1417 6.54 25.1577 6.504 25.1897 6.504C25.2137 6.504 25.2457 6.528 25.2857 6.576C25.3257 6.624 25.3537 6.68 25.3697 6.744C25.4177 6.872 25.4617 7.04 25.5017 7.248C25.5497 7.448 25.5897 7.648 25.6217 7.848C25.6537 8.04 25.6697 8.192 25.6697 8.304C25.6697 8.472 25.6377 8.628 25.5737 8.772C25.5177 8.916 25.4217 8.988 25.2857 8.988C25.1097 8.988 24.9337 8.904 24.7577 8.736C24.5897 8.568 24.4337 8.368 24.2897 8.136C24.1457 7.896 24.0217 7.676 23.9177 7.476C23.6777 7.828 23.4737 8.192 23.3057 8.568C23.1457 8.944 23.0377 9.32 22.9817 9.696C22.9737 9.776 22.9457 9.84 22.8977 9.888C22.8497 9.936 22.8057 9.96 22.7657 9.96Z" fill="white"/>
</svg>
